solid OpenSCAD_Model
  facet normal -1 0 0
    outer loop
      vertex 0 88.7 0
      vertex 0 59 14.1
      vertex 0 88.7 30
    endloop
  endfacet
  facet normal -1 0 0
    outer loop
      vertex 0 88.7 0
      vertex 0 47 14.1
      vertex 0 59 14.1
    endloop
  endfacet
  facet normal -1 0 0
    outer loop
      vertex 0 0 30
      vertex 0 47 14.1
      vertex 0 0 0
    endloop
  endfacet
  facet normal -1 0 0
    outer loop
      vertex 0 0 0
      vertex 0 47 14.1
      vertex 0 88.7 0
    endloop
  endfacet
  facet normal -1 0 0
    outer loop
      vertex 0 59 20.1
      vertex 0 88.7 30
      vertex 0 59 14.1
    endloop
  endfacet
  facet normal -1 0 0
    outer loop
      vertex 0 47 20.1
      vertex 0 88.7 30
      vertex 0 59 20.1
    endloop
  endfacet
  facet normal -1 0 0
    outer loop
      vertex 0 47 20.1
      vertex 0 0 30
      vertex 0 88.7 30
    endloop
  endfacet
  facet normal -1 0 0
    outer loop
      vertex 0 47 14.1
      vertex 0 0 30
      vertex 0 47 20.1
    endloop
  endfacet
  facet normal 0 0 1
    outer loop
      vertex 54.7 88.7 30
      vertex 53.7 87.7 30
      vertex 54.7 0 30
    endloop
  endfacet
  facet normal 0 0 1
    outer loop
      vertex 54.7 88.7 30
      vertex 1 87.7 30
      vertex 53.7 87.7 30
    endloop
  endfacet
  facet normal 0 0 1
    outer loop
      vertex 1 87.7 30
      vertex 0 88.7 30
      vertex 1 1 30
    endloop
  endfacet
  facet normal -0 0 1
    outer loop
      vertex 0 88.7 30
      vertex 1 87.7 30
      vertex 54.7 88.7 30
    endloop
  endfacet
  facet normal -0 0 1
    outer loop
      vertex 53.7 1 30
      vertex 54.7 0 30
      vertex 53.7 87.7 30
    endloop
  endfacet
  facet normal -0 0 1
    outer loop
      vertex 1 1 30
      vertex 54.7 0 30
      vertex 53.7 1 30
    endloop
  endfacet
  facet normal 0 0 1
    outer loop
      vertex 1 1 30
      vertex 0 0 30
      vertex 54.7 0 30
    endloop
  endfacet
  facet normal 0 0 1
    outer loop
      vertex 0 0 30
      vertex 1 1 30
      vertex 0 88.7 30
    endloop
  endfacet
  facet normal 1 0 0
    outer loop
      vertex 54.7 88.7 30
      vertex 54.7 35 20.6
      vertex 54.7 88.7 0
    endloop
  endfacet
  facet normal 1 -0 0
    outer loop
      vertex 54.7 0 30
      vertex 54.7 35 20.6
      vertex 54.7 88.7 30
    endloop
  endfacet
  facet normal 1 0 0
    outer loop
      vertex 54.7 0 0
      vertex 54.7 25 20.6
      vertex 54.7 0 30
    endloop
  endfacet
  facet normal 1 0 0
    outer loop
      vertex 54.7 35 20.6
      vertex 54.7 0 30
      vertex 54.7 25 20.6
    endloop
  endfacet
  facet normal 1 -0 0
    outer loop
      vertex 54.7 35 8.6
      vertex 54.7 88.7 0
      vertex 54.7 35 20.6
    endloop
  endfacet
  facet normal 1 0 0
    outer loop
      vertex 54.7 0 0
      vertex 54.7 35 8.6
      vertex 54.7 25 8.6
    endloop
  endfacet
  facet normal 1 0 0
    outer loop
      vertex 54.7 35 8.6
      vertex 54.7 0 0
      vertex 54.7 88.7 0
    endloop
  endfacet
  facet normal 1 0 0
    outer loop
      vertex 54.7 25 20.6
      vertex 54.7 0 0
      vertex 54.7 25 8.6
    endloop
  endfacet
  facet normal 0 0 -1
    outer loop
      vertex 0 0 0
      vertex 54.7 88.7 0
      vertex 54.7 0 0
    endloop
  endfacet
  facet normal -0 0 -1
    outer loop
      vertex 54.7 88.7 0
      vertex 0 0 0
      vertex 0 88.7 0
    endloop
  endfacet
  facet normal 0 -1 0
    outer loop
      vertex 0 0 0
      vertex 54.7 0 30
      vertex 0 0 30
    endloop
  endfacet
  facet normal 0 -1 -0
    outer loop
      vertex 54.7 0 30
      vertex 0 0 0
      vertex 54.7 0 0
    endloop
  endfacet
  facet normal 0 1 0
    outer loop
      vertex 18.2 88.7 18.1
      vertex 54.7 88.7 30
      vertex 51.7 88.7 18.1
    endloop
  endfacet
  facet normal 0 1 -0
    outer loop
      vertex 54.7 88.7 0
      vertex 51.7 88.7 18.1
      vertex 54.7 88.7 30
    endloop
  endfacet
  facet normal 0 1 0
    outer loop
      vertex 51.7 88.7 8.6
      vertex 54.7 88.7 0
      vertex 18.2 88.7 8.6
    endloop
  endfacet
  facet normal 0 1 0
    outer loop
      vertex 51.7 88.7 18.1
      vertex 54.7 88.7 0
      vertex 51.7 88.7 8.6
    endloop
  endfacet
  facet normal 0 1 0
    outer loop
      vertex 54.7 88.7 30
      vertex 18.2 88.7 18.1
      vertex 0 88.7 30
    endloop
  endfacet
  facet normal 0 1 0
    outer loop
      vertex 0 88.7 0
      vertex 18.2 88.7 18.1
      vertex 18.2 88.7 8.6
    endloop
  endfacet
  facet normal 0 1 0
    outer loop
      vertex 18.2 88.7 18.1
      vertex 0 88.7 0
      vertex 0 88.7 30
    endloop
  endfacet
  facet normal 0 1 0
    outer loop
      vertex 0 88.7 0
      vertex 18.2 88.7 8.6
      vertex 54.7 88.7 0
    endloop
  endfacet
  facet normal 1 0 0
    outer loop
      vertex 2 59 14.1
      vertex 2 86.7 26
      vertex 2 59 20.1
    endloop
  endfacet
  facet normal 1 0 0
    outer loop
      vertex 2 86.7 26
      vertex 2 47 20.1
      vertex 2 59 20.1
    endloop
  endfacet
  facet normal 1 0 0
    outer loop
      vertex 2 47 20.1
      vertex 2 2 26
      vertex 2 47 14.1
    endloop
  endfacet
  facet normal 1 -0 0
    outer loop
      vertex 2 2 26
      vertex 2 47 20.1
      vertex 2 86.7 26
    endloop
  endfacet
  facet normal 1 0 0
    outer loop
      vertex 2 86.7 26
      vertex 2 59 14.1
      vertex 2 86.7 2
    endloop
  endfacet
  facet normal 1 -0 0
    outer loop
      vertex 2 47 14.1
      vertex 2 86.7 2
      vertex 2 59 14.1
    endloop
  endfacet
  facet normal 1 0 0
    outer loop
      vertex 2 2 2
      vertex 2 47 14.1
      vertex 2 2 26
    endloop
  endfacet
  facet normal 1 0 0
    outer loop
      vertex 2 47 14.1
      vertex 2 2 2
      vertex 2 86.7 2
    endloop
  endfacet
  facet normal -1 0 0
    outer loop
      vertex 52.7 86.7 2
      vertex 52.7 35 8.6
      vertex 52.7 86.7 26
    endloop
  endfacet
  facet normal -1 0 0
    outer loop
      vertex 52.7 2 2
      vertex 52.7 35 8.6
      vertex 52.7 86.7 2
    endloop
  endfacet
  facet normal -1 0 0
    outer loop
      vertex 52.7 2 26
      vertex 52.7 25 8.6
      vertex 52.7 2 2
    endloop
  endfacet
  facet normal -1 -0 0
    outer loop
      vertex 52.7 35 8.6
      vertex 52.7 2 2
      vertex 52.7 25 8.6
    endloop
  endfacet
  facet normal -1 0 0
    outer loop
      vertex 52.7 35 20.6
      vertex 52.7 86.7 26
      vertex 52.7 35 8.6
    endloop
  endfacet
  facet normal -1 0 0
    outer loop
      vertex 52.7 2 26
      vertex 52.7 35 20.6
      vertex 52.7 25 20.6
    endloop
  endfacet
  facet normal -1 0 0
    outer loop
      vertex 52.7 35 20.6
      vertex 52.7 2 26
      vertex 52.7 86.7 26
    endloop
  endfacet
  facet normal -1 0 0
    outer loop
      vertex 52.7 25 8.6
      vertex 52.7 2 26
      vertex 52.7 25 20.6
    endloop
  endfacet
  facet normal 0 -1 0
    outer loop
      vertex 2 86.7 26
      vertex 18.2 86.7 18.1
      vertex 52.7 86.7 26
    endloop
  endfacet
  facet normal 0 -1 0
    outer loop
      vertex 2 86.7 2
      vertex 18.2 86.7 18.1
      vertex 2 86.7 26
    endloop
  endfacet
  facet normal 0 -1 0
    outer loop
      vertex 52.7 86.7 2
      vertex 18.2 86.7 8.6
      vertex 2 86.7 2
    endloop
  endfacet
  facet normal 0 -1 -0
    outer loop
      vertex 18.2 86.7 18.1
      vertex 2 86.7 2
      vertex 18.2 86.7 8.6
    endloop
  endfacet
  facet normal 0 -1 0
    outer loop
      vertex 51.7 86.7 18.1
      vertex 52.7 86.7 26
      vertex 18.2 86.7 18.1
    endloop
  endfacet
  facet normal 0 -1 0
    outer loop
      vertex 52.7 86.7 2
      vertex 51.7 86.7 18.1
      vertex 51.7 86.7 8.6
    endloop
  endfacet
  facet normal 0 -1 0
    outer loop
      vertex 51.7 86.7 18.1
      vertex 52.7 86.7 2
      vertex 52.7 86.7 26
    endloop
  endfacet
  facet normal 0 -1 0
    outer loop
      vertex 18.2 86.7 8.6
      vertex 52.7 86.7 2
      vertex 51.7 86.7 8.6
    endloop
  endfacet
  facet normal -0 0 1
    outer loop
      vertex 47.4678 12.2678 2
      vertex 52.7 2 2
      vertex 52.7 86.7 2
    endloop
  endfacet
  facet normal 0 0 1
    outer loop
      vertex 52.7 2 2
      vertex 47.4678 12.2678 2
      vertex 48.2 10.5 2
    endloop
  endfacet
  facet normal -0 0 1
    outer loop
      vertex 38.2 65.5 2
      vertex 47.4678 12.2678 2
      vertex 52.7 86.7 2
    endloop
  endfacet
  facet normal -0 0 1
    outer loop
      vertex 37.4678 63.7322 2
      vertex 47.4678 12.2678 2
      vertex 38.2 65.5 2
    endloop
  endfacet
  facet normal 0 0 1
    outer loop
      vertex 47.4678 12.2678 2
      vertex 37.4678 63.7322 2
      vertex 45.7 13 2
    endloop
  endfacet
  facet normal -0 0 1
    outer loop
      vertex 35.7 63 2
      vertex 45.7 13 2
      vertex 37.4678 63.7322 2
    endloop
  endfacet
  facet normal 0 0 1
    outer loop
      vertex 52.7 86.7 2
      vertex 37.4678 67.2678 2
      vertex 38.2 65.5 2
    endloop
  endfacet
  facet normal 0 0 1
    outer loop
      vertex 52.7 86.7 2
      vertex 35.7 68 2
      vertex 37.4678 67.2678 2
    endloop
  endfacet
  facet normal -0 0 1
    outer loop
      vertex 2 86.7 2
      vertex 35.7 68 2
      vertex 52.7 86.7 2
    endloop
  endfacet
  facet normal 0 0 1
    outer loop
      vertex 43.9322 12.2678 2
      vertex 17.7 10.7 2
      vertex 43.2 10.5 2
    endloop
  endfacet
  facet normal 0 0 1
    outer loop
      vertex 33.9322 63.7322 2
      vertex 15.2 13.2 2
      vertex 16.9678 12.4678 2
    endloop
  endfacet
  facet normal 0 0 1
    outer loop
      vertex 33.9322 63.7322 2
      vertex 13.4322 12.4678 2
      vertex 15.2 13.2 2
    endloop
  endfacet
  facet normal 0 0 1
    outer loop
      vertex 33.9322 63.7322 2
      vertex 2 86.7 2
      vertex 13.4322 12.4678 2
    endloop
  endfacet
  facet normal 0 0 1
    outer loop
      vertex 2 2 2
      vertex 13.4322 12.4678 2
      vertex 2 86.7 2
    endloop
  endfacet
  facet normal 0 0 1
    outer loop
      vertex 33.9322 67.2678 2
      vertex 2 86.7 2
      vertex 33.2 65.5 2
    endloop
  endfacet
  facet normal 0 0 1
    outer loop
      vertex 35.7 68 2
      vertex 2 86.7 2
      vertex 33.9322 67.2678 2
    endloop
  endfacet
  facet normal -0 0 1
    outer loop
      vertex 47.4678 8.73223 2
      vertex 52.7 2 2
      vertex 48.2 10.5 2
    endloop
  endfacet
  facet normal -0 0 1
    outer loop
      vertex 45.7 8 2
      vertex 52.7 2 2
      vertex 47.4678 8.73223 2
    endloop
  endfacet
  facet normal 0 0 1
    outer loop
      vertex 43.9322 8.73223 2
      vertex 52.7 2 2
      vertex 45.7 8 2
    endloop
  endfacet
  facet normal 0 0 1
    outer loop
      vertex 45.7 13 2
      vertex 35.7 63 2
      vertex 43.9322 12.2678 2
    endloop
  endfacet
  facet normal -0 0 1
    outer loop
      vertex 16.9678 12.4678 2
      vertex 43.9322 12.2678 2
      vertex 35.7 63 2
    endloop
  endfacet
  facet normal 0 0 1
    outer loop
      vertex 16.9678 12.4678 2
      vertex 35.7 63 2
      vertex 33.9322 63.7322 2
    endloop
  endfacet
  facet normal 0 0 1
    outer loop
      vertex 2 86.7 2
      vertex 33.9322 63.7322 2
      vertex 33.2 65.5 2
    endloop
  endfacet
  facet normal 0 -0 1
    outer loop
      vertex 17.7 10.7 2
      vertex 43.9322 12.2678 2
      vertex 16.9678 12.4678 2
    endloop
  endfacet
  facet normal 0 0 1
    outer loop
      vertex 16.9678 8.93223 2
      vertex 43.2 10.5 2
      vertex 17.7 10.7 2
    endloop
  endfacet
  facet normal 0 0 1
    outer loop
      vertex 43.2 10.5 2
      vertex 16.9678 8.93223 2
      vertex 43.9322 8.73223 2
    endloop
  endfacet
  facet normal 0 0 1
    outer loop
      vertex 43.9322 8.73223 2
      vertex 16.9678 8.93223 2
      vertex 52.7 2 2
    endloop
  endfacet
  facet normal -0 0 1
    outer loop
      vertex 15.2 8.2 2
      vertex 52.7 2 2
      vertex 16.9678 8.93223 2
    endloop
  endfacet
  facet normal 0 0 1
    outer loop
      vertex 15.2 8.2 2
      vertex 2 2 2
      vertex 52.7 2 2
    endloop
  endfacet
  facet normal 0 0 1
    outer loop
      vertex 13.4322 8.93223 2
      vertex 2 2 2
      vertex 15.2 8.2 2
    endloop
  endfacet
  facet normal 0 0 1
    outer loop
      vertex 12.7 10.7 2
      vertex 2 2 2
      vertex 13.4322 8.93223 2
    endloop
  endfacet
  facet normal 0 0 1
    outer loop
      vertex 13.4322 12.4678 2
      vertex 2 2 2
      vertex 12.7 10.7 2
    endloop
  endfacet
  facet normal 0 1 -0
    outer loop
      vertex 52.7 2 2
      vertex 2 2 26
      vertex 52.7 2 26
    endloop
  endfacet
  facet normal 0 1 0
    outer loop
      vertex 2 2 26
      vertex 52.7 2 2
      vertex 2 2 2
    endloop
  endfacet
  facet normal 1 -0 0
    outer loop
      vertex 18.2 86.7 18.1
      vertex 18.2 88.7 8.6
      vertex 18.2 88.7 18.1
    endloop
  endfacet
  facet normal 1 0 0
    outer loop
      vertex 18.2 88.7 8.6
      vertex 18.2 86.7 18.1
      vertex 18.2 86.7 8.6
    endloop
  endfacet
  facet normal 0 0 -1
    outer loop
      vertex 18.2 86.7 18.1
      vertex 51.7 88.7 18.1
      vertex 51.7 86.7 18.1
    endloop
  endfacet
  facet normal -0 0 -1
    outer loop
      vertex 51.7 88.7 18.1
      vertex 18.2 86.7 18.1
      vertex 18.2 88.7 18.1
    endloop
  endfacet
  facet normal -1 0 0
    outer loop
      vertex 51.7 86.7 8.6
      vertex 51.7 88.7 18.1
      vertex 51.7 88.7 8.6
    endloop
  endfacet
  facet normal -1 -0 0
    outer loop
      vertex 51.7 88.7 18.1
      vertex 51.7 86.7 8.6
      vertex 51.7 86.7 18.1
    endloop
  endfacet
  facet normal -0 0 1
    outer loop
      vertex 18.2 88.7 8.6
      vertex 51.7 86.7 8.6
      vertex 51.7 88.7 8.6
    endloop
  endfacet
  facet normal 0 0 1
    outer loop
      vertex 51.7 86.7 8.6
      vertex 18.2 88.7 8.6
      vertex 18.2 86.7 8.6
    endloop
  endfacet
  facet normal 0 0 -1
    outer loop
      vertex 52.7 25 20.6
      vertex 54.7 35 20.6
      vertex 54.7 25 20.6
    endloop
  endfacet
  facet normal -0 0 -1
    outer loop
      vertex 54.7 35 20.6
      vertex 52.7 25 20.6
      vertex 52.7 35 20.6
    endloop
  endfacet
  facet normal 0 -1 0
    outer loop
      vertex 52.7 35 8.6
      vertex 54.7 35 20.6
      vertex 52.7 35 20.6
    endloop
  endfacet
  facet normal 0 -1 -0
    outer loop
      vertex 54.7 35 20.6
      vertex 52.7 35 8.6
      vertex 54.7 35 8.6
    endloop
  endfacet
  facet normal -0 0 1
    outer loop
      vertex 52.7 35 8.6
      vertex 54.7 25 8.6
      vertex 54.7 35 8.6
    endloop
  endfacet
  facet normal 0 0 1
    outer loop
      vertex 54.7 25 8.6
      vertex 52.7 35 8.6
      vertex 52.7 25 8.6
    endloop
  endfacet
  facet normal 0 1 -0
    outer loop
      vertex 54.7 25 8.6
      vertex 52.7 25 20.6
      vertex 54.7 25 20.6
    endloop
  endfacet
  facet normal 0 1 0
    outer loop
      vertex 52.7 25 20.6
      vertex 54.7 25 8.6
      vertex 52.7 25 8.6
    endloop
  endfacet
  facet normal 1 -0 0
    outer loop
      vertex 1 1 30
      vertex 1 87.7 26
      vertex 1 87.7 30
    endloop
  endfacet
  facet normal 1 0 0
    outer loop
      vertex 1 87.7 26
      vertex 1 1 30
      vertex 1 1 26
    endloop
  endfacet
  facet normal -1 0 0
    outer loop
      vertex 53.7 1 26
      vertex 53.7 87.7 30
      vertex 53.7 87.7 26
    endloop
  endfacet
  facet normal -1 -0 0
    outer loop
      vertex 53.7 87.7 30
      vertex 53.7 1 26
      vertex 53.7 1 30
    endloop
  endfacet
  facet normal 0 -1 0
    outer loop
      vertex 1 87.7 26
      vertex 53.7 87.7 30
      vertex 1 87.7 30
    endloop
  endfacet
  facet normal 0 -1 -0
    outer loop
      vertex 53.7 87.7 30
      vertex 1 87.7 26
      vertex 53.7 87.7 26
    endloop
  endfacet
  facet normal 0 0 1
    outer loop
      vertex 53.7 87.7 26
      vertex 52.7 86.7 26
      vertex 53.7 1 26
    endloop
  endfacet
  facet normal 0 0 1
    outer loop
      vertex 53.7 87.7 26
      vertex 2 86.7 26
      vertex 52.7 86.7 26
    endloop
  endfacet
  facet normal 0 0 1
    outer loop
      vertex 2 86.7 26
      vertex 1 87.7 26
      vertex 2 2 26
    endloop
  endfacet
  facet normal -0 0 1
    outer loop
      vertex 1 87.7 26
      vertex 2 86.7 26
      vertex 53.7 87.7 26
    endloop
  endfacet
  facet normal -0 0 1
    outer loop
      vertex 52.7 2 26
      vertex 53.7 1 26
      vertex 52.7 86.7 26
    endloop
  endfacet
  facet normal -0 0 1
    outer loop
      vertex 2 2 26
      vertex 53.7 1 26
      vertex 52.7 2 26
    endloop
  endfacet
  facet normal 0 0 1
    outer loop
      vertex 2 2 26
      vertex 1 1 26
      vertex 53.7 1 26
    endloop
  endfacet
  facet normal 0 0 1
    outer loop
      vertex 1 1 26
      vertex 2 2 26
      vertex 1 87.7 26
    endloop
  endfacet
  facet normal 0 1 -0
    outer loop
      vertex 53.7 1 26
      vertex 1 1 30
      vertex 53.7 1 30
    endloop
  endfacet
  facet normal 0 1 0
    outer loop
      vertex 1 1 30
      vertex 53.7 1 26
      vertex 1 1 26
    endloop
  endfacet
  facet normal 0 0 -1
    outer loop
      vertex 0 47 20.1
      vertex 2 59 20.1
      vertex 2 47 20.1
    endloop
  endfacet
  facet normal -0 0 -1
    outer loop
      vertex 2 59 20.1
      vertex 0 47 20.1
      vertex 0 59 20.1
    endloop
  endfacet
  facet normal -0 0 1
    outer loop
      vertex 0 59 14.1
      vertex 2 47 14.1
      vertex 2 59 14.1
    endloop
  endfacet
  facet normal 0 0 1
    outer loop
      vertex 2 47 14.1
      vertex 0 59 14.1
      vertex 0 47 14.1
    endloop
  endfacet
  facet normal 0 1 -0
    outer loop
      vertex 2 47 14.1
      vertex 0 47 20.1
      vertex 2 47 20.1
    endloop
  endfacet
  facet normal 0 1 0
    outer loop
      vertex 0 47 20.1
      vertex 2 47 14.1
      vertex 0 47 14.1
    endloop
  endfacet
  facet normal 0 -1 0
    outer loop
      vertex 0 59 14.1
      vertex 2 59 20.1
      vertex 0 59 20.1
    endloop
  endfacet
  facet normal 0 -1 -0
    outer loop
      vertex 2 59 20.1
      vertex 0 59 14.1
      vertex 2 59 14.1
    endloop
  endfacet
  facet normal 0.92388 0.382683 0
    outer loop
      vertex 17.7 10.7 7
      vertex 16.9678 12.4678 2
      vertex 16.9678 12.4678 7
    endloop
  endfacet
  facet normal 0.92388 0.382683 0
    outer loop
      vertex 16.9678 12.4678 2
      vertex 17.7 10.7 7
      vertex 17.7 10.7 2
    endloop
  endfacet
  facet normal -0.92388 0.382683 0
    outer loop
      vertex 12.7 10.7 2
      vertex 13.4322 12.4678 7
      vertex 13.4322 12.4678 2
    endloop
  endfacet
  facet normal -0.92388 0.382683 0
    outer loop
      vertex 13.4322 12.4678 7
      vertex 12.7 10.7 2
      vertex 12.7 10.7 7
    endloop
  endfacet
  facet normal 0.382683 0.92388 -0
    outer loop
      vertex 16.9678 12.4678 2
      vertex 15.2 13.2 7
      vertex 16.9678 12.4678 7
    endloop
  endfacet
  facet normal 0.382683 0.92388 0
    outer loop
      vertex 15.2 13.2 7
      vertex 16.9678 12.4678 2
      vertex 15.2 13.2 2
    endloop
  endfacet
  facet normal -0.382683 0.92388 0
    outer loop
      vertex 15.2 13.2 2
      vertex 13.4322 12.4678 7
      vertex 15.2 13.2 7
    endloop
  endfacet
  facet normal -0.382683 0.92388 0
    outer loop
      vertex 13.4322 12.4678 7
      vertex 15.2 13.2 2
      vertex 13.4322 12.4678 2
    endloop
  endfacet
  facet normal 0.382683 -0.92388 0
    outer loop
      vertex 15.2 8.2 2
      vertex 16.9678 8.93223 7
      vertex 15.2 8.2 7
    endloop
  endfacet
  facet normal 0.382683 -0.92388 0
    outer loop
      vertex 16.9678 8.93223 7
      vertex 15.2 8.2 2
      vertex 16.9678 8.93223 2
    endloop
  endfacet
  facet normal -0.92388 -0.382683 0
    outer loop
      vertex 13.4322 8.93223 2
      vertex 12.7 10.7 7
      vertex 12.7 10.7 2
    endloop
  endfacet
  facet normal -0.92388 -0.382683 0
    outer loop
      vertex 12.7 10.7 7
      vertex 13.4322 8.93223 2
      vertex 13.4322 8.93223 7
    endloop
  endfacet
  facet normal -0.382683 -0.92388 0
    outer loop
      vertex 13.4322 8.93223 2
      vertex 15.2 8.2 7
      vertex 13.4322 8.93223 7
    endloop
  endfacet
  facet normal -0.382683 -0.92388 -0
    outer loop
      vertex 15.2 8.2 7
      vertex 13.4322 8.93223 2
      vertex 15.2 8.2 2
    endloop
  endfacet
  facet normal 0 0 1
    outer loop
      vertex 16.2 10.7 7
      vertex 17.7 10.7 7
      vertex 16.9678 12.4678 7
    endloop
  endfacet
  facet normal 0 0 1
    outer loop
      vertex 17.7 10.7 7
      vertex 16.2 10.7 7
      vertex 16.9678 8.93223 7
    endloop
  endfacet
  facet normal 0 0 1
    outer loop
      vertex 16.9678 12.4678 7
      vertex 15.509 11.6511 7
      vertex 16.2 10.7 7
    endloop
  endfacet
  facet normal 0 0 1
    outer loop
      vertex 15.2 13.2 7
      vertex 15.509 11.6511 7
      vertex 16.9678 12.4678 7
    endloop
  endfacet
  facet normal 0 0 1
    outer loop
      vertex 15.2 13.2 7
      vertex 14.391 11.2878 7
      vertex 15.509 11.6511 7
    endloop
  endfacet
  facet normal 0 0 1
    outer loop
      vertex 12.7 10.7 7
      vertex 14.391 11.2878 7
      vertex 13.4322 12.4678 7
    endloop
  endfacet
  facet normal -0 0 1
    outer loop
      vertex 13.4322 12.4678 7
      vertex 14.391 11.2878 7
      vertex 15.2 13.2 7
    endloop
  endfacet
  facet normal -0 0 1
    outer loop
      vertex 15.509 9.74894 7
      vertex 16.9678 8.93223 7
      vertex 16.2 10.7 7
    endloop
  endfacet
  facet normal 0 0 1
    outer loop
      vertex 15.509 9.74894 7
      vertex 15.2 8.2 7
      vertex 16.9678 8.93223 7
    endloop
  endfacet
  facet normal 0 0 1
    outer loop
      vertex 14.391 10.1122 7
      vertex 15.2 8.2 7
      vertex 15.509 9.74894 7
    endloop
  endfacet
  facet normal 0 0 1
    outer loop
      vertex 14.391 10.1122 7
      vertex 13.4322 8.93223 7
      vertex 15.2 8.2 7
    endloop
  endfacet
  facet normal 0 0 1
    outer loop
      vertex 14.391 11.2878 7
      vertex 12.7 10.7 7
      vertex 14.391 10.1122 7
    endloop
  endfacet
  facet normal 0 0 1
    outer loop
      vertex 14.391 10.1122 7
      vertex 12.7 10.7 7
      vertex 13.4322 8.93223 7
    endloop
  endfacet
  facet normal 0.92388 -0.382683 0
    outer loop
      vertex 16.9678 8.93223 7
      vertex 17.7 10.7 2
      vertex 17.7 10.7 7
    endloop
  endfacet
  facet normal 0.92388 -0.382683 0
    outer loop
      vertex 17.7 10.7 2
      vertex 16.9678 8.93223 7
      vertex 16.9678 8.93223 2
    endloop
  endfacet
  facet normal -0.809016 -0.587786 0
    outer loop
      vertex 16.2 10.7 4
      vertex 15.509 11.6511 7
      vertex 15.509 11.6511 4
    endloop
  endfacet
  facet normal -0.809016 -0.587786 0
    outer loop
      vertex 15.509 11.6511 7
      vertex 16.2 10.7 4
      vertex 16.2 10.7 7
    endloop
  endfacet
  facet normal 1 -0 0
    outer loop
      vertex 14.391 10.1122 7
      vertex 14.391 11.2878 4
      vertex 14.391 11.2878 7
    endloop
  endfacet
  facet normal 1 0 0
    outer loop
      vertex 14.391 11.2878 4
      vertex 14.391 10.1122 7
      vertex 14.391 10.1122 4
    endloop
  endfacet
  facet normal 0.309018 -0.951056 0
    outer loop
      vertex 14.391 11.2878 4
      vertex 15.509 11.6511 7
      vertex 14.391 11.2878 7
    endloop
  endfacet
  facet normal 0.309018 -0.951056 0
    outer loop
      vertex 15.509 11.6511 7
      vertex 14.391 11.2878 4
      vertex 15.509 11.6511 4
    endloop
  endfacet
  facet normal 0.309018 0.951056 -0
    outer loop
      vertex 15.509 9.74894 4
      vertex 14.391 10.1122 7
      vertex 15.509 9.74894 7
    endloop
  endfacet
  facet normal 0.309018 0.951056 0
    outer loop
      vertex 14.391 10.1122 7
      vertex 15.509 9.74894 4
      vertex 14.391 10.1122 4
    endloop
  endfacet
  facet normal 0 0 1
    outer loop
      vertex 15.509 11.6511 4
      vertex 15.509 9.74894 4
      vertex 16.2 10.7 4
    endloop
  endfacet
  facet normal -0 0 1
    outer loop
      vertex 14.391 11.2878 4
      vertex 15.509 9.74894 4
      vertex 15.509 11.6511 4
    endloop
  endfacet
  facet normal 0 0 1
    outer loop
      vertex 15.509 9.74894 4
      vertex 14.391 11.2878 4
      vertex 14.391 10.1122 4
    endloop
  endfacet
  facet normal -0.809016 0.587786 0
    outer loop
      vertex 15.509 9.74894 4
      vertex 16.2 10.7 7
      vertex 16.2 10.7 4
    endloop
  endfacet
  facet normal -0.809016 0.587786 0
    outer loop
      vertex 16.2 10.7 7
      vertex 15.509 9.74894 4
      vertex 15.509 9.74894 7
    endloop
  endfacet
  facet normal 0.923879 0.382684 0
    outer loop
      vertex 48.2 10.5 7
      vertex 47.4678 12.2678 2
      vertex 47.4678 12.2678 7
    endloop
  endfacet
  facet normal 0.923879 0.382684 0
    outer loop
      vertex 47.4678 12.2678 2
      vertex 48.2 10.5 7
      vertex 48.2 10.5 2
    endloop
  endfacet
  facet normal -0.92388 0.382683 0
    outer loop
      vertex 43.2 10.5 2
      vertex 43.9322 12.2678 7
      vertex 43.9322 12.2678 2
    endloop
  endfacet
  facet normal -0.92388 0.382683 0
    outer loop
      vertex 43.9322 12.2678 7
      vertex 43.2 10.5 2
      vertex 43.2 10.5 7
    endloop
  endfacet
  facet normal 0.382684 0.923879 -0
    outer loop
      vertex 47.4678 12.2678 2
      vertex 45.7 13 7
      vertex 47.4678 12.2678 7
    endloop
  endfacet
  facet normal 0.382684 0.923879 0
    outer loop
      vertex 45.7 13 7
      vertex 47.4678 12.2678 2
      vertex 45.7 13 2
    endloop
  endfacet
  facet normal -0.382683 0.92388 0
    outer loop
      vertex 45.7 13 2
      vertex 43.9322 12.2678 7
      vertex 45.7 13 7
    endloop
  endfacet
  facet normal -0.382683 0.92388 0
    outer loop
      vertex 43.9322 12.2678 7
      vertex 45.7 13 2
      vertex 43.9322 12.2678 2
    endloop
  endfacet
  facet normal 0.382684 -0.923879 0
    outer loop
      vertex 45.7 8 2
      vertex 47.4678 8.73223 7
      vertex 45.7 8 7
    endloop
  endfacet
  facet normal 0.382684 -0.923879 0
    outer loop
      vertex 47.4678 8.73223 7
      vertex 45.7 8 2
      vertex 47.4678 8.73223 2
    endloop
  endfacet
  facet normal -0.92388 -0.382683 0
    outer loop
      vertex 43.9322 8.73223 2
      vertex 43.2 10.5 7
      vertex 43.2 10.5 2
    endloop
  endfacet
  facet normal -0.92388 -0.382683 0
    outer loop
      vertex 43.2 10.5 7
      vertex 43.9322 8.73223 2
      vertex 43.9322 8.73223 7
    endloop
  endfacet
  facet normal -0.382683 -0.92388 0
    outer loop
      vertex 43.9322 8.73223 2
      vertex 45.7 8 7
      vertex 43.9322 8.73223 7
    endloop
  endfacet
  facet normal -0.382683 -0.92388 -0
    outer loop
      vertex 45.7 8 7
      vertex 43.9322 8.73223 2
      vertex 45.7 8 2
    endloop
  endfacet
  facet normal 0 0 1
    outer loop
      vertex 46.7 10.5 7
      vertex 48.2 10.5 7
      vertex 47.4678 12.2678 7
    endloop
  endfacet
  facet normal 0 0 1
    outer loop
      vertex 48.2 10.5 7
      vertex 46.7 10.5 7
      vertex 47.4678 8.73223 7
    endloop
  endfacet
  facet normal 0 0 1
    outer loop
      vertex 47.4678 12.2678 7
      vertex 46.009 11.4511 7
      vertex 46.7 10.5 7
    endloop
  endfacet
  facet normal 0 0 1
    outer loop
      vertex 45.7 13 7
      vertex 46.009 11.4511 7
      vertex 47.4678 12.2678 7
    endloop
  endfacet
  facet normal 0 0 1
    outer loop
      vertex 45.7 13 7
      vertex 44.891 11.0878 7
      vertex 46.009 11.4511 7
    endloop
  endfacet
  facet normal 0 0 1
    outer loop
      vertex 43.2 10.5 7
      vertex 44.891 11.0878 7
      vertex 43.9322 12.2678 7
    endloop
  endfacet
  facet normal -0 0 1
    outer loop
      vertex 43.9322 12.2678 7
      vertex 44.891 11.0878 7
      vertex 45.7 13 7
    endloop
  endfacet
  facet normal -0 0 1
    outer loop
      vertex 46.009 9.54894 7
      vertex 47.4678 8.73223 7
      vertex 46.7 10.5 7
    endloop
  endfacet
  facet normal 0 0 1
    outer loop
      vertex 46.009 9.54894 7
      vertex 45.7 8 7
      vertex 47.4678 8.73223 7
    endloop
  endfacet
  facet normal 0 0 1
    outer loop
      vertex 44.891 9.91222 7
      vertex 45.7 8 7
      vertex 46.009 9.54894 7
    endloop
  endfacet
  facet normal 0 0 1
    outer loop
      vertex 44.891 9.91222 7
      vertex 43.9322 8.73223 7
      vertex 45.7 8 7
    endloop
  endfacet
  facet normal 0 0 1
    outer loop
      vertex 44.891 11.0878 7
      vertex 43.2 10.5 7
      vertex 44.891 9.91222 7
    endloop
  endfacet
  facet normal 0 0 1
    outer loop
      vertex 44.891 9.91222 7
      vertex 43.2 10.5 7
      vertex 43.9322 8.73223 7
    endloop
  endfacet
  facet normal 0.923879 -0.382684 0
    outer loop
      vertex 47.4678 8.73223 7
      vertex 48.2 10.5 2
      vertex 48.2 10.5 7
    endloop
  endfacet
  facet normal 0.923879 -0.382684 0
    outer loop
      vertex 48.2 10.5 2
      vertex 47.4678 8.73223 7
      vertex 47.4678 8.73223 2
    endloop
  endfacet
  facet normal -0.809017 -0.587785 0
    outer loop
      vertex 46.7 10.5 4
      vertex 46.009 11.4511 7
      vertex 46.009 11.4511 4
    endloop
  endfacet
  facet normal -0.809017 -0.587785 0
    outer loop
      vertex 46.009 11.4511 7
      vertex 46.7 10.5 4
      vertex 46.7 10.5 7
    endloop
  endfacet
  facet normal 1 -0 0
    outer loop
      vertex 44.891 9.91222 7
      vertex 44.891 11.0878 4
      vertex 44.891 11.0878 7
    endloop
  endfacet
  facet normal 1 0 0
    outer loop
      vertex 44.891 11.0878 4
      vertex 44.891 9.91222 7
      vertex 44.891 9.91222 4
    endloop
  endfacet
  facet normal 0.309017 -0.951056 0
    outer loop
      vertex 44.891 11.0878 4
      vertex 46.009 11.4511 7
      vertex 44.891 11.0878 7
    endloop
  endfacet
  facet normal 0.309017 -0.951056 0
    outer loop
      vertex 46.009 11.4511 7
      vertex 44.891 11.0878 4
      vertex 46.009 11.4511 4
    endloop
  endfacet
  facet normal 0.309017 0.951056 -0
    outer loop
      vertex 46.009 9.54894 4
      vertex 44.891 9.91222 7
      vertex 46.009 9.54894 7
    endloop
  endfacet
  facet normal 0.309017 0.951056 0
    outer loop
      vertex 44.891 9.91222 7
      vertex 46.009 9.54894 4
      vertex 44.891 9.91222 4
    endloop
  endfacet
  facet normal 0 0 1
    outer loop
      vertex 46.009 11.4511 4
      vertex 46.009 9.54894 4
      vertex 46.7 10.5 4
    endloop
  endfacet
  facet normal -0 0 1
    outer loop
      vertex 44.891 11.0878 4
      vertex 46.009 9.54894 4
      vertex 46.009 11.4511 4
    endloop
  endfacet
  facet normal 0 0 1
    outer loop
      vertex 46.009 9.54894 4
      vertex 44.891 11.0878 4
      vertex 44.891 9.91222 4
    endloop
  endfacet
  facet normal -0.809017 0.587785 0
    outer loop
      vertex 46.009 9.54894 4
      vertex 46.7 10.5 7
      vertex 46.7 10.5 4
    endloop
  endfacet
  facet normal -0.809017 0.587785 0
    outer loop
      vertex 46.7 10.5 7
      vertex 46.009 9.54894 4
      vertex 46.009 9.54894 7
    endloop
  endfacet
  facet normal 0.923879 0.382684 0
    outer loop
      vertex 38.2 65.5 7
      vertex 37.4678 67.2678 2
      vertex 37.4678 67.2678 7
    endloop
  endfacet
  facet normal 0.923879 0.382684 0
    outer loop
      vertex 37.4678 67.2678 2
      vertex 38.2 65.5 7
      vertex 38.2 65.5 2
    endloop
  endfacet
  facet normal -0.92388 0.382682 0
    outer loop
      vertex 33.2 65.5 2
      vertex 33.9322 67.2678 7
      vertex 33.9322 67.2678 2
    endloop
  endfacet
  facet normal -0.92388 0.382682 0
    outer loop
      vertex 33.9322 67.2678 7
      vertex 33.2 65.5 2
      vertex 33.2 65.5 7
    endloop
  endfacet
  facet normal 0.382683 0.92388 -0
    outer loop
      vertex 37.4678 67.2678 2
      vertex 35.7 68 7
      vertex 37.4678 67.2678 7
    endloop
  endfacet
  facet normal 0.382683 0.92388 0
    outer loop
      vertex 35.7 68 7
      vertex 37.4678 67.2678 2
      vertex 35.7 68 2
    endloop
  endfacet
  facet normal -0.382682 0.92388 0
    outer loop
      vertex 35.7 68 2
      vertex 33.9322 67.2678 7
      vertex 35.7 68 7
    endloop
  endfacet
  facet normal -0.382682 0.92388 0
    outer loop
      vertex 33.9322 67.2678 7
      vertex 35.7 68 2
      vertex 33.9322 67.2678 2
    endloop
  endfacet
  facet normal 0.382683 -0.92388 0
    outer loop
      vertex 35.7 63 2
      vertex 37.4678 63.7322 7
      vertex 35.7 63 7
    endloop
  endfacet
  facet normal 0.382683 -0.92388 0
    outer loop
      vertex 37.4678 63.7322 7
      vertex 35.7 63 2
      vertex 37.4678 63.7322 2
    endloop
  endfacet
  facet normal -0.92388 -0.382682 0
    outer loop
      vertex 33.9322 63.7322 2
      vertex 33.2 65.5 7
      vertex 33.2 65.5 2
    endloop
  endfacet
  facet normal -0.92388 -0.382682 0
    outer loop
      vertex 33.2 65.5 7
      vertex 33.9322 63.7322 2
      vertex 33.9322 63.7322 7
    endloop
  endfacet
  facet normal -0.382682 -0.92388 0
    outer loop
      vertex 33.9322 63.7322 2
      vertex 35.7 63 7
      vertex 33.9322 63.7322 7
    endloop
  endfacet
  facet normal -0.382682 -0.92388 -0
    outer loop
      vertex 35.7 63 7
      vertex 33.9322 63.7322 2
      vertex 35.7 63 2
    endloop
  endfacet
  facet normal 0 0 1
    outer loop
      vertex 36.7 65.5 7
      vertex 38.2 65.5 7
      vertex 37.4678 67.2678 7
    endloop
  endfacet
  facet normal 0 0 1
    outer loop
      vertex 38.2 65.5 7
      vertex 36.7 65.5 7
      vertex 37.4678 63.7322 7
    endloop
  endfacet
  facet normal 0 0 1
    outer loop
      vertex 37.4678 67.2678 7
      vertex 36.009 66.4511 7
      vertex 36.7 65.5 7
    endloop
  endfacet
  facet normal 0 0 1
    outer loop
      vertex 35.7 68 7
      vertex 36.009 66.4511 7
      vertex 37.4678 67.2678 7
    endloop
  endfacet
  facet normal 0 0 1
    outer loop
      vertex 35.7 68 7
      vertex 34.891 66.0878 7
      vertex 36.009 66.4511 7
    endloop
  endfacet
  facet normal 0 0 1
    outer loop
      vertex 33.2 65.5 7
      vertex 34.891 66.0878 7
      vertex 33.9322 67.2678 7
    endloop
  endfacet
  facet normal -0 0 1
    outer loop
      vertex 33.9322 67.2678 7
      vertex 34.891 66.0878 7
      vertex 35.7 68 7
    endloop
  endfacet
  facet normal -0 0 1
    outer loop
      vertex 36.009 64.5489 7
      vertex 37.4678 63.7322 7
      vertex 36.7 65.5 7
    endloop
  endfacet
  facet normal 0 0 1
    outer loop
      vertex 36.009 64.5489 7
      vertex 35.7 63 7
      vertex 37.4678 63.7322 7
    endloop
  endfacet
  facet normal 0 0 1
    outer loop
      vertex 34.891 64.9122 7
      vertex 35.7 63 7
      vertex 36.009 64.5489 7
    endloop
  endfacet
  facet normal 0 0 1
    outer loop
      vertex 34.891 64.9122 7
      vertex 33.9322 63.7322 7
      vertex 35.7 63 7
    endloop
  endfacet
  facet normal 0 0 1
    outer loop
      vertex 34.891 66.0878 7
      vertex 33.2 65.5 7
      vertex 34.891 64.9122 7
    endloop
  endfacet
  facet normal 0 0 1
    outer loop
      vertex 34.891 64.9122 7
      vertex 33.2 65.5 7
      vertex 33.9322 63.7322 7
    endloop
  endfacet
  facet normal 0.923879 -0.382684 0
    outer loop
      vertex 37.4678 63.7322 7
      vertex 38.2 65.5 2
      vertex 38.2 65.5 7
    endloop
  endfacet
  facet normal 0.923879 -0.382684 0
    outer loop
      vertex 38.2 65.5 2
      vertex 37.4678 63.7322 7
      vertex 37.4678 63.7322 2
    endloop
  endfacet
  facet normal -0.809017 -0.587785 0
    outer loop
      vertex 36.7 65.5 4
      vertex 36.009 66.4511 7
      vertex 36.009 66.4511 4
    endloop
  endfacet
  facet normal -0.809017 -0.587785 0
    outer loop
      vertex 36.009 66.4511 7
      vertex 36.7 65.5 4
      vertex 36.7 65.5 7
    endloop
  endfacet
  facet normal 1 -0 0
    outer loop
      vertex 34.891 64.9122 7
      vertex 34.891 66.0878 4
      vertex 34.891 66.0878 7
    endloop
  endfacet
  facet normal 1 0 0
    outer loop
      vertex 34.891 66.0878 4
      vertex 34.891 64.9122 7
      vertex 34.891 64.9122 4
    endloop
  endfacet
  facet normal 0.309019 -0.951056 0
    outer loop
      vertex 34.891 66.0878 4
      vertex 36.009 66.4511 7
      vertex 34.891 66.0878 7
    endloop
  endfacet
  facet normal 0.309019 -0.951056 0
    outer loop
      vertex 36.009 66.4511 7
      vertex 34.891 66.0878 4
      vertex 36.009 66.4511 4
    endloop
  endfacet
  facet normal 0.309019 0.951056 -0
    outer loop
      vertex 36.009 64.5489 4
      vertex 34.891 64.9122 7
      vertex 36.009 64.5489 7
    endloop
  endfacet
  facet normal 0.309019 0.951056 0
    outer loop
      vertex 34.891 64.9122 7
      vertex 36.009 64.5489 4
      vertex 34.891 64.9122 4
    endloop
  endfacet
  facet normal 0 0 1
    outer loop
      vertex 36.009 66.4511 4
      vertex 36.009 64.5489 4
      vertex 36.7 65.5 4
    endloop
  endfacet
  facet normal -0 0 1
    outer loop
      vertex 34.891 66.0878 4
      vertex 36.009 64.5489 4
      vertex 36.009 66.4511 4
    endloop
  endfacet
  facet normal 0 0 1
    outer loop
      vertex 36.009 64.5489 4
      vertex 34.891 66.0878 4
      vertex 34.891 64.9122 4
    endloop
  endfacet
  facet normal -0.809017 0.587785 0
    outer loop
      vertex 36.009 64.5489 4
      vertex 36.7 65.5 7
      vertex 36.7 65.5 4
    endloop
  endfacet
  facet normal -0.809017 0.587785 0
    outer loop
      vertex 36.7 65.5 7
      vertex 36.009 64.5489 4
      vertex 36.009 64.5489 7
    endloop
  endfacet
endsolid OpenSCAD_Model
